<svg width="656" height="100" xmlns="http://www.w3.org/2000/svg"><path d="M 435 27 C 435 27, 435 27, 435 27" stroke-width="5" stroke="rgba(0, 12, 251, 1)" fill="transparent"/><path d="M 435 27 C 435 27, 330.03234254421125 24.924207038045278, 278 30" stroke-width="5" stroke="rgba(0, 12, 251, 1)" fill="transparent"/><path d="M 278 30 C 257.2856298697966 32.02070191302407, 236.13142476032462 33.27510567234629, 216 38" stroke-width="5" stroke="rgba(0, 12, 251, 1)" fill="transparent"/><path d="M 216 38 C 186.5188001321086 44.91930927326873, 123.97093448785235 54.06372626952989, 131 72" stroke-width="5" stroke="rgba(0, 12, 251, 1)" fill="transparent"/><path d="M 131 72 C 134.04228220330845 79.76308120468862, 148.20175278045093 95.73900529681826, 160 99" stroke-width="5" stroke="rgba(0, 12, 251, 1)" fill="transparent"/><path d="M 160 99 C 167.74750740914982 101.14138423733289, 180.75882711477226 102.7571523732915, 186 98" stroke-width="5" stroke="rgba(0, 12, 251, 1)" fill="transparent"/><path d="M 186 98 C 190.20607871300942 94.18235120840241, 191.2222324598688 84.70619395889484, 192 78" stroke-width="5" stroke="rgba(0, 12, 251, 1)" fill="transparent"/><path d="M 192 78 C 193.49086330438038 65.1452356012604, 192.42179244201336 46.9438642158152, 183 39" stroke-width="5" stroke="rgba(0, 12, 251, 1)" fill="transparent"/><path d="M 183 39 C 179.31544266435287 35.893412442493585, 173.29215108003893 32.19100252497234, 169 32" stroke-width="5" stroke="rgba(0, 12, 251, 1)" fill="transparent"/><path d="M 169 32 C 161.04775125841934 31.646121592524114, 150.7971969855456 45.51179385866942, 149 53" stroke-width="5" stroke="rgba(0, 12, 251, 1)" fill="transparent"/><path d="M 149 53 C 146.43806141295772 63.67458070289263, 160.34451302925356 81.49386752571594, 171 88" stroke-width="5" stroke="rgba(0, 12, 251, 1)" fill="transparent"/><path d="M 171 88 C 180.6235134558881 93.87601989322098, 197.43772227759212 96.77034427731047, 208 93" stroke-width="5" stroke="rgba(0, 12, 251, 1)" fill="transparent"/><path d="M 208 93 C 217.4038855452458 89.64315908160789, 228.97008300808727 79.48070800695274, 232 70" stroke-width="5" stroke="rgba(0, 12, 251, 1)" fill="transparent"/><path d="M 232 70 C 234.56676545286263 61.96850809910727, 227.41243748087982 46.00927527808047, 229 42" stroke-width="5" stroke="rgba(0, 12, 251, 1)" fill="transparent"/><path d="M 229 42 C 232.1494964831768 34.046172521507984, 254.8179774128821 69.9045672252561, 269 81" stroke-width="5" stroke="rgba(0, 12, 251, 1)" fill="transparent"/><path d="M 269 81 C 342.5234160036457 138.52170500553171, 461.46083405403436 99.9350702373018, 558 100" stroke-width="5" stroke="rgba(0, 12, 251, 1)" fill="transparent"/><path d="M 558 100 C 558.9999779154823 100.00067255945419, 560.0007456983143 100.01420740713297, 561 100" stroke-width="5" stroke="rgba(0, 12, 251, 1)" fill="transparent"/><path d="M 561 100 C 567.3635755427499 99.90952262261494, 574.4177428466357 100.74721528881736, 580 98" stroke-width="5" stroke="rgba(0, 12, 251, 1)" fill="transparent"/><path d="M 580 98 C 582.1070026338587 96.963073593658, 586 94, 586 94" stroke-width="5" stroke="rgba(0, 12, 251, 1)" fill="transparent"/></svg>