<svg width="656" height="100" xmlns="http://www.w3.org/2000/svg"><path d="M 135 36 C 135 36, 135 36, 135 36" stroke-width="5" stroke="rgba(0, 12, 251, 1)" fill="transparent"/><path d="M 135 36 C 135 36, 137.65993212907813 35.278627973161974, 139 35" stroke-width="5" stroke="rgba(0, 12, 251, 1)" fill="transparent"/><path d="M 139 35 C 145.82529817196806 33.58087859790765, 153.00694613278043 35.17046329798214, 160 35" stroke-width="5" stroke="rgba(0, 12, 251, 1)" fill="transparent"/><path d="M 160 35 C 176.3714031812478 34.600929231797785, 192.75548234274055 33.00924501203041, 209 31" stroke-width="5" stroke="rgba(0, 12, 251, 1)" fill="transparent"/><path d="M 209 31 C 231.16535810605401 28.258420585079385, 252.92449305168608 22.52827768259186, 275 19" stroke-width="5" stroke="rgba(0, 12, 251, 1)" fill="transparent"/><path d="M 275 19 C 296.59441490679114 15.54861415583123, 318.2958918803194 12.702408187442336, 340 10" stroke-width="5" stroke="rgba(0, 12, 251, 1)" fill="transparent"/><path d="M 340 10 C 357.64192887432466 7.80337930638027, 375.2534392764295 4.584030420222214, 393 4" stroke-width="5" stroke="rgba(0, 12, 251, 1)" fill="transparent"/><path d="M 393 4 C 400.31974151486526 3.759110974828664, 407.68022920397345 3.6468531633495966, 415 4" stroke-width="5" stroke="rgba(0, 12, 251, 1)" fill="transparent"/><path d="M 415 4 C 419.3380970344534 4.209294155171001, 423.78060707995024 4.166151076743227, 428 5" stroke-width="5" stroke="rgba(0, 12, 251, 1)" fill="transparent"/><path d="M 428 5 C 434.2499986714986 6.235143244854256, 440.4656401058796 8.814001616179004, 446 12" stroke-width="5" stroke="rgba(0, 12, 251, 1)" fill="transparent"/><path d="M 446 12 C 449.8976141722637 14.243763089347045, 453.16451340459247 17.59790966666992, 457 20" stroke-width="5" stroke="rgba(0, 12, 251, 1)" fill="transparent"/><path d="M 457 20 C 459.9032707435323 21.818261754956822, 462.60635725011576 24.85245031522243, 466 25" stroke-width="5" stroke="rgba(0, 12, 251, 1)" fill="transparent"/><path d="M 466 25 C 466.32961972248535 25.01433129228197, 466.6933333333333 25, 467 25" stroke-width="5" stroke="rgba(0, 12, 251, 1)" fill="transparent"/><path d="M 467 25 C 474.36 25, 451 25, 443 25" stroke-width="5" stroke="rgba(0, 12, 251, 1)" fill="transparent"/><path d="M 443 25 C 426.66666666666663 25, 410.3333333333333 25, 394 25" stroke-width="5" stroke="rgba(0, 12, 251, 1)" fill="transparent"/><path d="M 394 25 C 357.66666666666663 25, 321.33333333333337 25, 285 25" stroke-width="5" stroke="rgba(0, 12, 251, 1)" fill="transparent"/><path d="M 285 25 C 269.6666666666667 25, 254.21706474416447 23.548953196037388, 239 25" stroke-width="5" stroke="rgba(0, 12, 251, 1)" fill="transparent"/><path d="M 239 25 C 228.61248858116548 25.990517258014897, 218.35533905932738 28.48121693796532, 208 30" stroke-width="5" stroke="rgba(0, 12, 251, 1)" fill="transparent"/><path d="M 208 30 C 200.6776695296637 31.073941802315993, 193.0170555792858 30.835303178156792, 186 33" stroke-width="5" stroke="rgba(0, 12, 251, 1)" fill="transparent"/><path d="M 186 33 C 181.89158024252734 34.2674095411261, 177.9076280707086 36.13150535483583, 174 38" stroke-width="5" stroke="rgba(0, 12, 251, 1)" fill="transparent"/><path d="M 174 38 C 172.6557350774014 38.64278169879714, 171.26483094560774 39.228592115590885, 170 40" stroke-width="5" stroke="rgba(0, 12, 251, 1)" fill="transparent"/><path d="M 170 40 C 167.79106771743693 41.347205952552194, 165.73298730014244 43.079662721463784, 164 45" stroke-width="5" stroke="rgba(0, 12, 251, 1)" fill="transparent"/><path d="M 164 45 C 162.89056856563215 46.22936996781303, 161.28571428571428 47.42857142857142, 161 49" stroke-width="5" stroke="rgba(0, 12, 251, 1)" fill="transparent"/><path d="M 161 49 C 160.8857142857143 49.62857142857143, 161.14076374533343 50.36656314599949, 161 51" stroke-width="5" stroke="rgba(0, 12, 251, 1)" fill="transparent"/><path d="M 161 51 C 160.84262134833347 51.708203932499366, 160.10300566479165 52.27896034645844, 160 53" stroke-width="5" stroke="rgba(0, 12, 251, 1)" fill="transparent"/><path d="M 160 53 C 159.95393446629168 53.32245873595837, 160 53.666666666666664, 160 54" stroke-width="5" stroke="rgba(0, 12, 251, 1)" fill="transparent"/><path d="M 160 54 C 160 54.666666666666664, 159.91111111111113 55.37777777777778, 160 56" stroke-width="5" stroke="rgba(0, 12, 251, 1)" fill="transparent"/><path d="M 160 56 C 160.44444444444443 59.11111111111111, 165.11925639601353 60.44976933175304, 168 62" stroke-width="5" stroke="rgba(0, 12, 251, 1)" fill="transparent"/><path d="M 168 62 C 172.75104406382343 64.55670591570161, 178.61819445666399 64.91836261138835, 184 66" stroke-width="5" stroke="rgba(0, 12, 251, 1)" fill="transparent"/><path d="M 184 66 C 191.24547745270354 67.45619889980807, 198.64327113218818 68.29086607542624, 206 69" stroke-width="5" stroke="rgba(0, 12, 251, 1)" fill="transparent"/><path d="M 206 69 C 219.25735716558466 70.27791058841936, 232.66740377187526 69.64000952390836, 246 70" stroke-width="5" stroke="rgba(0, 12, 251, 1)" fill="transparent"/><path d="M 246 70 C 268.0020073570953 70.594071324739, 289.99520378175936 71.64995639051394, 312 72" stroke-width="5" stroke="rgba(0, 12, 251, 1)" fill="transparent"/><path d="M 312 72 C 336.32747116658913 72.38699180543931, 360.66666666666663 72, 385 72" stroke-width="5" stroke="rgba(0, 12, 251, 1)" fill="transparent"/><path d="M 385 72 C 408.66666666666663 72, 432.33333333333337 72, 456 72" stroke-width="5" stroke="rgba(0, 12, 251, 1)" fill="transparent"/><path d="M 456 72 C 471.33333333333337 72, 486.6908658208221 72.67843947229497, 502 72" stroke-width="5" stroke="rgba(0, 12, 251, 1)" fill="transparent"/><path d="M 502 72 C 511.3423451166389 71.58598470581369, 520.7867978090324 71.48941068156377, 530 70" stroke-width="5" stroke="rgba(0, 12, 251, 1)" fill="transparent"/><path d="M 530 70 C 536.0518332340156 69.0216577390842, 542 67.33333333333333, 548 66" stroke-width="5" stroke="rgba(0, 12, 251, 1)" fill="transparent"/><path d="M 548 66 C 551 65.33333333333333, 557 64, 557 64" stroke-width="5" stroke="rgba(0, 12, 251, 1)" fill="transparent"/><path d="M 592 76 C 592 76, 592 76, 592 76" stroke-width="5" stroke="rgba(0, 12, 251, 1)" fill="transparent"/><path d="M 592 76 C 592 76, 592.6666666666666 76, 593 76" stroke-width="5" stroke="rgba(0, 12, 251, 1)" fill="transparent"/><path d="M 593 76 C 593.3333333333333 76, 593.7003394657983 76.05448373349124, 594 76" stroke-width="5" stroke="rgba(0, 12, 251, 1)" fill="transparent"/><path d="M 594 76 C 595.3401226492983 75.75634133649127, 596.076278975909 72.99162668681561, 596 72" stroke-width="5" stroke="rgba(0, 12, 251, 1)" fill="transparent"/><path d="M 596 72 C 595.8593485180902 70.17153073517308, 590.6826836438138 70.17495762894438, 588 70" stroke-width="5" stroke="rgba(0, 12, 251, 1)" fill="transparent"/><path d="M 588 70 C 584.3627763060304 69.76278975908895, 580.0348361126619 70.1274415475065, 577 72" stroke-width="5" stroke="rgba(0, 12, 251, 1)" fill="transparent"/><path d="M 577 72 C 575.0806011117314 73.18430995233594, 572.8846973220329 75.00943102542603, 572 77" stroke-width="5" stroke="rgba(0, 12, 251, 1)" fill="transparent"/><path d="M 572 77 C 570.9990792388687 79.2520717125453, 571.7312443556057 82.36283523937983, 572 85" stroke-width="5" stroke="rgba(0, 12, 251, 1)" fill="transparent"/><path d="M 572 85 C 572.3097255764553 88.03918221896798, 572.4110345193156 91.74799431873669, 574 94" stroke-width="5" stroke="rgba(0, 12, 251, 1)" fill="transparent"/><path d="M 574 94 C 576.0824828214129 96.95145690826146, 581.1920111290809 98.26126774790484, 585 99" stroke-width="5" stroke="rgba(0, 12, 251, 1)" fill="transparent"/><path d="M 585 99 C 590.0816636545278 99.98581927709084, 597.0200361592606 99.80526085690886, 601 97" stroke-width="5" stroke="rgba(0, 12, 251, 1)" fill="transparent"/><path d="M 601 97 C 604.2182287707986 94.73164491926092, 607.0471179660841 90.0686550337042, 608 86" stroke-width="5" stroke="rgba(0, 12, 251, 1)" fill="transparent"/><path d="M 608 86 C 608.6577444426637 83.19153563370612, 608 80, 608 77" stroke-width="5" stroke="rgba(0, 12, 251, 1)" fill="transparent"/><path d="M 608 77 C 608 74.66666666666666, 609.1751026499754 71.84658987853291, 608 70" stroke-width="5" stroke="rgba(0, 12, 251, 1)" fill="transparent"/><path d="M 608 70 C 607.5251868272069 69.25386501418224, 606.6666666666666 68.66666666666666, 606 68" stroke-width="5" stroke="rgba(0, 12, 251, 1)" fill="transparent"/><path d="M 606 68 C 605.3333333333333 67.33333333333333, 604.8006734178513 66.34314575050763, 604 66" stroke-width="5" stroke="rgba(0, 12, 251, 1)" fill="transparent"/><path d="M 604 66 C 603.1507575950825 65.63603896932108, 601.9750173370403 65.84604989415153, 601 66" stroke-width="5" stroke="rgba(0, 12, 251, 1)" fill="transparent"/><path d="M 601 66 C 599.9722414856003 66.16227766016837, 598.6903559372884 66.30964406271148, 598 67" stroke-width="5" stroke="rgba(0, 12, 251, 1)" fill="transparent"/><path d="M 598 67 C 597.5118446353108 67.48815536468908, 597 69, 597 69" stroke-width="5" stroke="rgba(0, 12, 251, 1)" fill="transparent"/><path d="M 70 19 C 70 19, 70 19, 70 19" stroke-width="5" stroke="rgba(0, 12, 251, 1)" fill="transparent"/><path d="M 70 19 C 70 19, 70.65006871904018 20.3514448294663, 71 21" stroke-width="5" stroke="rgba(0, 12, 251, 1)" fill="transparent"/><path d="M 71 21 C 78.2360509282449 34.41114241312194, 99.48085326681029 32.967579500517175, 114 38" stroke-width="5" stroke="rgba(0, 12, 251, 1)" fill="transparent"/><path d="M 114 38 C 161.3565672997817 54.41406099435451, 212.23457882779806 60.27101627108897, 262 67" stroke-width="5" stroke="rgba(0, 12, 251, 1)" fill="transparent"/><path d="M 262 67 C 292.17448002453494 71.08001339747251, 322.53456663588287 75.67787270073185, 353 76" stroke-width="5" stroke="rgba(0, 12, 251, 1)" fill="transparent"/><path d="M 353 76 C 356.6647551498375 76.03874941363172, 364 76, 364 76" stroke-width="5" stroke="rgba(0, 12, 251, 1)" fill="transparent"/></svg>