<svg width="656" height="100" xmlns="http://www.w3.org/2000/svg"><path d="M 142 43 C 142 43, 142 43, 142 43" stroke-width="5" stroke="rgba(0, 12, 251, 1)" fill="transparent"/><path d="M 142 43 C 142 43, 141.23858975258574 42.34870809993302, 141 42" stroke-width="5" stroke="rgba(0, 12, 251, 1)" fill="transparent"/><path d="M 141 42 C 139.86826943317945 40.34593224849304, 142.82320303366447 37.867122745800074, 144 36" stroke-width="5" stroke="rgba(0, 12, 251, 1)" fill="transparent"/><path d="M 144 36 C 147.10361221193287 31.075764876342735, 152.2220621094374 27.31808147733007, 157 24" stroke-width="5" stroke="rgba(0, 12, 251, 1)" fill="transparent"/><path d="M 157 24 C 163.77319616667563 19.296293661045635, 171.9772265042491 15.953335229216266, 180 14" stroke-width="5" stroke="rgba(0, 12, 251, 1)" fill="transparent"/><path d="M 180 14 C 186.74806432600562 12.357023068894394, 193.9819875684333 12.287549805134617, 201 12" stroke-width="5" stroke="rgba(0, 12, 251, 1)" fill="transparent"/><path d="M 201 12 C 206.32297112551066 11.78190131111864, 211.9708853238265 10.783125371360667, 217 12" stroke-width="5" stroke="rgba(0, 12, 251, 1)" fill="transparent"/><path d="M 217 12 C 222.34343434343435 13.292929292929294, 227.21441441441442 16.996396396396396, 232 20" stroke-width="5" stroke="rgba(0, 12, 251, 1)" fill="transparent"/><path d="M 232 20 C 237.63010068892424 23.53365129835718, 242.69368411646067 27.964430639075943, 248 32" stroke-width="5" stroke="rgba(0, 12, 251, 1)" fill="transparent"/><path d="M 248 32 C 252.35150256831977 35.3094129381119, 256.30650976009036 39.241545209877636, 261 42" stroke-width="5" stroke="rgba(0, 12, 251, 1)" fill="transparent"/><path d="M 261 42 C 263.5595568059748 43.5043009298273, 266.2935301580892 44.75248655724424, 269 46" stroke-width="5" stroke="rgba(0, 12, 251, 1)" fill="transparent"/><path d="M 269 46 C 271.3044760312814 47.062219420668754, 273.6666666666667 48, 276 49" stroke-width="5" stroke="rgba(0, 12, 251, 1)" fill="transparent"/><path d="M 276 49 C 278.3333333333333 50, 280.57258762042795 51.45834599794674, 283 52" stroke-width="5" stroke="rgba(0, 12, 251, 1)" fill="transparent"/><path d="M 283 52 C 285.8686137457701 52.64010389368424, 289 52.00000000000001, 292 52" stroke-width="5" stroke="rgba(0, 12, 251, 1)" fill="transparent"/><path d="M 292 52 C 296.6666666666667 52, 301.3896863660904 52.45776163740946, 306 52" stroke-width="5" stroke="rgba(0, 12, 251, 1)" fill="transparent"/><path d="M 306 52 C 312.7888607427981 51.32592872057325, 320.01010333003916 50.08854047044858, 326 47" stroke-width="5" stroke="rgba(0, 12, 251, 1)" fill="transparent"/><path d="M 326 47 C 330.358289998256 44.75275671964924, 333.90689064154077 40.86839947167611, 338 38" stroke-width="5" stroke="rgba(0, 12, 251, 1)" fill="transparent"/><path d="M 338 38 C 340.9515831336012 35.931567725271584, 347 32, 347 32" stroke-width="5" stroke="rgba(0, 12, 251, 1)" fill="transparent"/></svg>